<svg id="Capa_1" enable-background="new 0 0 512 512" height="512" viewBox="0 0 512 512" width="512" xmlns="http://www.w3.org/2000/svg"><g><g><circle cx="142.229" cy="142.599" fill="#ee596b" r="142.229"/><path d="m164.73 283.06c-7.333 1.164-14.841 1.775-22.494 1.775-78.553 0-142.236-63.683-142.236-142.236s63.683-142.222 142.236-142.222c7.653 0 15.161.611 22.494 1.775-67.859 10.782-119.728 69.547-119.728 140.447s51.869 129.68 119.728 140.461z" fill="#ed3a4f"/><g fill="#21386b"><g><ellipse cx="197.533" cy="128.912" rx="17.55" ry="29.164"/><ellipse cx="86.925" cy="128.912" rx="17.55" ry="29.164"/></g><path d="m188.688 209.087c-2.125 0-4.241-.872-5.767-2.582-10.347-11.595-25.179-18.245-40.692-18.245s-30.345 6.65-40.692 18.245c-2.842 3.184-7.726 3.461-10.909.62-3.184-2.841-3.462-7.725-.62-10.909 13.276-14.877 32.309-23.409 52.221-23.409s38.946 8.532 52.221 23.409c2.842 3.184 2.563 8.068-.62 10.909-1.473 1.315-3.311 1.962-5.142 1.962z"/></g></g><g><circle cx="176.456" cy="369.394" fill="#f9da41" r="142.229"/><path d="m198.957 509.855c-7.333 1.164-14.841 1.775-22.494 1.775-78.553 0-142.236-63.683-142.236-142.236s63.683-142.222 142.236-142.222c7.653 0 15.161.611 22.494 1.775-67.859 10.781-119.728 69.547-119.728 140.447s51.869 129.68 119.728 140.461z" fill="#edc932"/><g fill="#21386b"><g><path d="m231.968 323.794c-9.713 0-17.615 13.132-17.615 29.273s7.902 29.273 17.615 29.273 17.615-13.132 17.615-29.273-7.901-29.273-17.615-29.273z"/><path d="m120.944 323.794c-9.713 0-17.615 13.132-17.615 29.273s7.902 29.273 17.615 29.273 17.615-13.132 17.615-29.273-7.902-29.273-17.615-29.273z"/></g><path d="m239.711 418.604h-126.509c-4.267 0-7.726-3.459-7.726-7.726s3.459-7.726 7.726-7.726h126.509c4.267 0 7.726 3.459 7.726 7.726s-3.459 7.726-7.726 7.726z"/></g></g><g><circle cx="369.771" cy="229.817" fill="#78d0b1" r="142.229"/><path d="m392.272 370.278c-7.333 1.164-14.841 1.775-22.494 1.775-78.553 0-142.236-63.683-142.236-142.236s63.684-142.222 142.237-142.222c7.653 0 15.161.611 22.494 1.775-67.859 10.781-119.728 69.547-119.728 140.447s51.868 129.68 119.727 140.461z" fill="#66b49d"/><g fill="#21386b"><g><path d="m423.949 186.078c-9.481 0-17.195 12.817-17.195 28.572s7.714 28.572 17.195 28.572 17.195-12.817 17.195-28.572c-.001-15.755-7.714-28.572-17.195-28.572z"/><path d="m315.594 186.078c-9.481 0-17.195 12.817-17.195 28.572s7.714 28.572 17.195 28.572 17.195-12.817 17.195-28.572-7.714-28.572-17.195-28.572z"/></g><path d="m369.771 316.397c-27.709 0-52.572-16.506-63.342-42.05-1.657-3.932.186-8.463 4.118-10.121 3.934-1.657 8.463.186 10.121 4.118 8.349 19.804 27.623 32.601 49.103 32.601s40.754-12.797 49.104-32.601c1.657-3.932 6.189-5.776 10.121-4.118 3.932 1.657 5.776 6.189 4.118 10.121-10.77 25.544-35.634 42.05-63.343 42.05z"/></g></g></g></svg>