<svg width="57" height="42" viewBox="0 0 57 42" fill="none" xmlns="http://www.w3.org/2000/svg">
<g clip-path="url(#clip0_2364_2982)">
<path d="M19.7538 4.28008L19.7508 4.28311C19.6249 4.14814 19.4487 4.06055 19.2493 4.06055C18.8707 4.06055 18.5625 4.36813 18.5625 4.74784C18.5625 4.92864 18.635 5.08977 18.7498 5.21263L18.7458 5.21566L27.6837 14.8409L28.6918 13.9053L19.7538 4.28008Z" fill="#434A54"/>
<path d="M13.7501 4.06055C13.5511 4.06055 13.3749 4.14814 13.2495 4.28311L13.2459 4.28008L4.30859 13.9053L5.31616 14.8409L14.2536 5.21566L14.2506 5.21263C14.3644 5.08977 14.4373 4.92864 14.4373 4.74784C14.4374 4.36813 14.1298 4.06055 13.7501 4.06055Z" fill="#434A54"/>
<path d="M1.375 15.748L5.50003 32.9355H27.4994L31.6244 15.748H1.375Z" fill="#4A89DC"/>
<path d="M33 13.6855H0V17.8106H33V13.6855Z" fill="#5D9CEC"/>
<path d="M11.6879 20.5605C11.3082 20.5605 11 20.8687 11 21.2473V28.1238C11 28.5024 11.3082 28.8106 11.6879 28.8106C12.0676 28.8106 12.3752 28.5024 12.3752 28.1238V21.2473C12.3752 20.8687 12.0676 20.5605 11.6879 20.5605Z" fill="white"/>
<path d="M16.5003 20.5605C16.1206 20.5605 15.813 20.8687 15.813 21.2473V28.1238C15.813 28.5024 16.1206 28.8106 16.5003 28.8106C16.88 28.8106 17.1876 28.5024 17.1876 28.1238V21.2473C17.1876 20.8687 16.88 20.5605 16.5003 20.5605Z" fill="white"/>
<path d="M21.3123 20.5605C20.9336 20.5605 20.6255 20.8687 20.6255 21.2473V28.1238C20.6255 28.5024 20.9336 28.8106 21.3123 28.8106C21.6929 28.8106 22.0012 28.5024 22.0012 28.1238V21.2473C22.0012 20.8687 21.693 20.5605 21.3123 20.5605Z" fill="white"/>
</g>
<g clip-path="url(#clip1_2364_2982)">
<path d="M33.0483 3.31244L30.3507 9.66649C30.291 9.80688 30.3565 9.96897 30.4969 10.0286L30.7224 10.1243C31.2698 10.3567 31.5622 10.9774 31.3559 11.5351C31.1355 12.1306 30.4656 12.4151 29.8879 12.1698L29.6337 12.0619C29.4933 12.0023 29.3312 12.0677 29.2716 12.2081L20.9629 31.7788C20.8437 32.0595 20.9747 32.3837 21.2554 32.5029L36.5054 38.9772C36.7861 39.0964 37.1103 38.9654 37.2295 38.6847L45.5382 19.1141C45.5978 18.9737 45.5324 18.8116 45.392 18.752L45.1665 18.6563C44.6191 18.4239 44.3267 17.8032 44.533 17.2455C44.7534 16.65 45.4233 16.3655 46.001 16.6108L46.2552 16.7187C46.3956 16.7783 46.5577 16.7128 46.6173 16.5724L49.3149 10.2183C49.4341 9.9376 49.3031 9.61333 49.0224 9.49415L33.7724 3.01982C33.4917 2.9007 33.1674 3.03171 33.0483 3.31244ZM43.2435 16.0401C43.5242 16.1592 43.6553 16.4832 43.536 16.7642C43.4167 17.0452 43.0926 17.1759 42.8118 17.0568L41.7952 16.6252C41.5145 16.506 41.3834 16.182 41.5027 15.901C41.6219 15.62 41.9461 15.4893 42.2268 15.6084L43.2435 16.0401ZM40.1935 14.7452C40.4742 14.8644 40.6053 15.1884 40.486 15.4694C40.3667 15.7503 40.0426 15.8811 39.7618 15.7619L38.7452 15.3303C38.4645 15.2111 38.3334 14.8871 38.4527 14.6061C38.5719 14.3252 38.8961 14.1944 39.1768 14.3136L40.1935 14.7452ZM37.1435 13.4503C37.4243 13.5695 37.5554 13.8935 37.4361 14.1745C37.3168 14.4555 36.9926 14.5862 36.7119 14.4671L35.6952 14.0354C35.4145 13.9163 35.2834 13.5923 35.4027 13.3113C35.522 13.0303 35.8462 12.8996 36.1269 13.0187L37.1435 13.4503ZM34.0935 12.1555C34.3742 12.2747 34.5054 12.5986 34.3861 12.8796C34.2668 13.1606 33.9426 13.2914 33.6619 13.1722L32.6452 12.7406C32.3645 12.6214 32.2334 12.2974 32.3527 12.0164C32.472 11.7354 32.7961 11.6047 33.0769 11.7239L34.0935 12.1555Z" fill="#FFDC64"/>
<path d="M36.4645 32.361C36.3954 32.5239 36.2644 32.6598 36.0876 32.7312C35.734 32.874 35.3319 32.7033 35.1891 32.3497L29.9237 19.3152C29.7809 18.9617 29.9516 18.5596 30.3052 18.4167C30.6588 18.2738 31.0608 18.4446 31.2037 18.7982L36.4691 31.8327C36.5405 32.0095 36.5336 32.1981 36.4645 32.361Z" fill="white"/>
<path d="M31.5203 28.4625C30.8956 29.9338 29.1902 30.623 27.7185 29.9982C26.2469 29.3735 25.5581 27.6679 26.1828 26.1965C26.8075 24.7251 28.5129 24.036 29.9846 24.6608C31.4562 25.2855 32.145 26.9911 31.5203 28.4625ZM27.4537 26.7361C27.1264 27.507 27.4872 28.4001 28.2581 28.7274C29.0291 29.0547 29.9222 28.6939 30.2495 27.923C30.5768 27.1521 30.216 26.2589 29.4451 25.9316C28.6741 25.6043 27.781 25.9651 27.4537 26.7361Z" fill="white"/>
<path d="M40.2098 24.9527C39.5851 26.4241 37.8796 27.1132 36.408 26.4885C34.9364 25.8637 34.2476 24.1581 34.8723 22.6867C35.4969 21.2153 37.2024 20.5262 38.674 21.151C40.1456 21.7758 40.8344 23.4814 40.2098 24.9527ZM36.1432 23.2263C35.8159 23.9972 36.1766 24.8904 36.9476 25.2177C37.7185 25.545 38.6117 25.1842 38.939 24.4132C39.2663 23.6423 38.9055 22.7492 38.1346 22.4219C37.3636 22.0946 36.4705 22.4554 36.1432 23.2263Z" fill="white"/>
<path d="M33.0769 11.724L34.0935 12.1556C34.3742 12.2748 34.5054 12.5988 34.386 12.8798L35.4027 13.3114C35.522 13.0305 35.8461 12.8997 36.1269 13.0189L37.1435 13.4505C37.4242 13.5697 37.5554 13.8937 37.4361 14.1747L38.4527 14.6063C38.572 14.3253 38.8962 14.1946 39.1769 14.3138L40.1935 14.7454C40.4743 14.8646 40.6054 15.1885 40.4861 15.4695L41.5027 15.9012C41.622 15.6202 41.9462 15.4894 42.2269 15.6086L43.2435 16.0402C43.5243 16.1594 43.6554 16.4834 43.5361 16.7644L44.5527 17.196C44.7911 16.6346 45.4395 16.3726 46.001 16.611L46.2552 16.7189C46.3956 16.7785 46.5577 16.713 46.6173 16.5726L49.3149 10.2185C49.4341 9.93781 49.3031 9.61354 49.0224 9.49436L33.7724 3.02003C33.4917 2.90085 33.1674 3.03184 33.0482 3.31257L30.3506 9.66662C30.291 9.80701 30.3565 9.9691 30.4969 10.0287L30.751 10.1366C31.3125 10.375 31.5744 11.0234 31.3361 11.5849L32.3527 12.0165C32.472 11.7356 32.7961 11.6048 33.0769 11.724Z" fill="#FFC850"/>
</g>
<defs>
<clipPath id="clip0_2364_2982">
<rect width="33" height="33" fill="white" transform="translate(0 1.99805)"/>
</clipPath>
<clipPath id="clip1_2364_2982">
<rect width="32.0301" height="32.0301" fill="white" transform="matrix(0.39079 -0.92048 0.920481 0.390787 14.1387 29.4824)"/>
</clipPath>
</defs>
</svg>
