<svg width="40" height="40" viewBox="0 0 40 40" fill="none" xmlns="http://www.w3.org/2000/svg">
<g clip-path="url(#clip0_174_3200)">
<path d="M30.7829 14.4348H26.6089C26.0329 14.4348 25.5654 13.9677 25.5654 13.3913V9.21733C25.5654 8.64089 26.0329 8.17383 26.6089 8.17383H30.7829C31.3589 8.17383 31.8264 8.64089 31.8264 9.21733V13.3913C31.8263 13.9677 31.3589 14.4348 30.7829 14.4348Z" fill="#FF9F19"/>
<path d="M23.4776 21.3906H21.3906V23.4776H23.4776V21.3906Z" fill="#E63A1B"/>
<path d="M23.4776 25.5645H21.3906V27.6514H23.4776V25.5645Z" fill="#E63A1B"/>
<path d="M23.4776 29.7383H21.3906V31.8252H23.4776V29.7383Z" fill="#E63A1B"/>
<path d="M25.5645 23.4785H23.4775V25.5655H25.5645V23.4785Z" fill="#E63A1B"/>
<path d="M25.5645 27.6523H23.4775V29.7393H25.5645V27.6523Z" fill="#E63A1B"/>
<path d="M25.5645 31.8262H23.4775V33.9131H25.5645V31.8262Z" fill="#E63A1B"/>
<path d="M27.6524 21.3906H25.5654V23.4776H27.6524V21.3906Z" fill="#E63A1B"/>
<path d="M27.6524 25.5645H25.5654V27.6514H27.6524V25.5645Z" fill="#E63A1B"/>
<path d="M27.6524 29.7383H25.5654V31.8252H27.6524V29.7383Z" fill="#E63A1B"/>
<path d="M29.7383 23.4785H27.6514V25.5655H29.7383V23.4785Z" fill="#E63A1B"/>
<path d="M29.7383 27.6523H27.6514V29.7393H29.7383V27.6523Z" fill="#E63A1B"/>
<path d="M29.7383 31.8262H27.6514V33.9131H29.7383V31.8262Z" fill="#E63A1B"/>
<path d="M31.8252 21.3926H29.7383V23.4795H31.8252V21.3926Z" fill="#E63A1B"/>
<path d="M31.8252 25.5664H29.7383V27.6533H31.8252V25.5664Z" fill="#E63A1B"/>
<path d="M31.8252 29.7402H29.7383V31.8272H31.8252V29.7402Z" fill="#E63A1B"/>
<path d="M33.9131 23.4785H31.8262V25.5655H33.9131V23.4785Z" fill="#E63A1B"/>
<path d="M33.9131 27.6523H31.8262V29.7393H33.9131V27.6523Z" fill="#E63A1B"/>
<path d="M33.9131 31.8262H31.8262V33.9131H33.9131V31.8262Z" fill="#E63A1B"/>
<path d="M23.4776 33.9121H21.3906V35.999H23.4776V33.9121Z" fill="#E63A1B"/>
<path d="M27.6524 33.9121H25.5654V35.999H27.6524V33.9121Z" fill="#E63A1B"/>
<path d="M31.8252 33.9141H29.7383V36.001H31.8252V33.9141Z" fill="#E63A1B"/>
<path d="M35.9981 21.3926H33.9111V23.4795H35.9981V21.3926Z" fill="#E63A1B"/>
<path d="M35.9981 25.5664H33.9111V27.6533H35.9981V25.5664Z" fill="#E63A1B"/>
<path d="M35.9981 29.7402H33.9111V31.8272H35.9981V29.7402Z" fill="#E63A1B"/>
<path d="M35.9981 33.9141H33.9111V36.001H35.9981V33.9141Z" fill="#E63A1B"/>
<path d="M36.0007 5.0435C36.0007 4.46706 35.5332 4 34.9572 4H28.6963" fill="#FFCC33"/>
<path d="M30.7833 8.17383H28.6963V14.4347H30.7832C31.3593 14.4347 31.8267 13.9676 31.8267 13.3912V9.21727C31.8267 8.64089 31.3594 8.17383 30.7833 8.17383Z" fill="#F28618"/>
<path d="M13.3903 14.4348H9.21635C8.64029 14.4348 8.17285 13.9677 8.17285 13.3913V9.21733C8.17285 8.64089 8.64029 8.17383 9.21635 8.17383H13.3903C13.9664 8.17383 14.4338 8.64089 14.4338 9.21733V13.3913C14.4338 13.9677 13.9664 14.4348 13.3903 14.4348Z" fill="#FF9F19"/>
<path d="M13.3906 8.17383H11.3037V14.4347H13.3906C13.9667 14.4347 14.4341 13.9676 14.4341 13.3912V9.21727C14.4341 8.64089 13.9667 8.17383 13.3906 8.17383Z" fill="#F28618"/>
<path d="M13.3903 31.8254H9.21635C8.64029 31.8254 8.17285 31.3583 8.17285 30.7819V26.608C8.17285 26.0315 8.64029 25.5645 9.21635 25.5645H13.3903C13.9664 25.5645 14.4338 26.0315 14.4338 26.608V30.7819C14.4338 31.3583 13.9664 31.8254 13.3903 31.8254Z" fill="#FF9F19"/>
<path d="M13.3906 25.5645H11.3037V31.8253H13.3906C13.9667 31.8253 14.4341 31.3583 14.4341 30.7818V26.6079C14.4341 26.0315 13.9667 25.5645 13.3906 25.5645Z" fill="#F28618"/>
<path d="M17.5652 18.6087H5.0435C4.46744 18.6087 4 18.1416 4 17.5652V5.0435C4 4.46706 4.46744 4 5.0435 4H17.5653C18.1413 4 18.6088 4.46706 18.6088 5.0435V17.5653C18.6087 18.1416 18.1413 18.6087 17.5652 18.6087ZM6.08694 16.5218H16.5218V6.08694H6.08694V16.5218Z" fill="#FF9F19"/>
<path d="M17.5652 35.9993H5.0435C4.46744 35.9993 4 35.5322 4 34.9558V22.4341C4 21.8577 4.46744 21.3906 5.0435 21.3906H17.5653C18.1413 21.3906 18.6088 21.8577 18.6088 22.4341V34.9559C18.6087 35.5323 18.1413 35.9993 17.5652 35.9993ZM6.08694 33.9124H16.5218V23.4776H6.08694V33.9124Z" fill="#FF9F19"/>
<path d="M17.5655 4H11.3047V6.08694H16.5221V16.5218H11.3047V18.6087H17.5656C18.1416 18.6087 18.6091 18.1416 18.6091 17.5652V5.0435C18.609 4.46706 18.1416 4 17.5655 4Z" fill="#F28618"/>
<path d="M17.5655 21.3906H11.3047V23.4776H16.5221V33.9124H11.3047V35.9993H17.5656C18.1416 35.9993 18.6091 35.5322 18.6091 34.9558V22.4341C18.609 21.8577 18.1416 21.3906 17.5655 21.3906Z" fill="#F28618"/>
<path d="M29.7408 23.4785H28.6973V25.5655H29.7408V23.4785Z" fill="#E63A1B"/>
<path d="M29.7408 27.6523H28.6973V29.7393H29.7408V27.6523Z" fill="#E63A1B"/>
<path d="M29.7408 31.8262H28.6973V33.9131H29.7408V31.8262Z" fill="#E63A1B"/>
<path d="M34.9558 18.6087H22.4341C21.8581 18.6087 21.3906 18.1416 21.3906 17.5652V5.0435C21.3906 4.46706 21.858 4 22.4341 4H34.9559C35.5319 4 35.9993 4.46706 35.9993 5.0435V17.5653C35.9993 18.1416 35.5319 18.6087 34.9558 18.6087ZM23.4776 16.5218H33.9124V6.08694H23.4776V16.5218Z" fill="#FF9F19"/>
<path d="M34.9572 4H28.6963V6.08694H33.9137V16.5218H28.6963V18.6087H34.9572C35.5332 18.6087 36.0007 18.1416 36.0007 17.5652V5.0435C36.0007 4.46706 35.5332 4 34.9572 4Z" fill="#F28618"/>
</g>
<defs>
<clipPath id="clip0_174_3200">
<rect width="32" height="32" fill="white" transform="translate(4 4)"/>
</clipPath>
</defs>
</svg>
