<svg width="40" height="40" viewBox="0 0 40 40" fill="none" xmlns="http://www.w3.org/2000/svg">
<g clip-path="url(#clip0_174_2856)">
<path d="M13.5639 15.9091L9.20703 32.1699L35.6408 39.2525L39.9977 22.9917L13.5639 15.9091Z" fill="#1A74D2"/>
<path d="M19.3283 25.9066C20.3461 25.9066 21.1713 25.0815 21.1713 24.0637C21.1713 23.0458 20.3461 22.2207 19.3283 22.2207C18.3105 22.2207 17.4854 23.0458 17.4854 24.0637C17.4854 25.0815 18.3105 25.9066 19.3283 25.9066Z" fill="#FF8C00"/>
<path d="M19.3918 27.3899L18.292 27.9333L17.6113 26.9128C16.2304 26.8866 14.9363 27.6168 14.2422 28.8061L21.3628 30.7141C21.3563 29.337 20.6007 28.0576 19.3918 27.3899Z" fill="white"/>
<path d="M31.1193 24.8385L27.3429 23.8266C26.8512 23.6947 26.346 23.9866 26.2143 24.4782C26.0825 24.9698 26.3743 25.4751 26.8658 25.6068L30.6423 26.6186C31.1338 26.7503 31.6392 26.4586 31.7708 25.9671C31.9027 25.4755 31.611 24.9701 31.1193 24.8385Z" fill="#3D3D3B"/>
<path d="M34.0139 29.1434L26.461 27.1196C25.9694 26.9876 25.4641 27.2796 25.3324 27.7712C25.2007 28.2627 25.4924 28.768 25.984 28.8997L33.537 30.9236C34.0285 31.0552 34.5338 30.7636 34.6655 30.272C34.7973 29.7804 34.5057 29.275 34.0139 29.1434Z" fill="white"/>
<path d="M33.1311 32.4364L25.5782 30.4126C25.0866 30.2806 24.5813 30.5726 24.4496 31.0641C24.3178 31.5558 24.6096 32.061 25.1012 32.1927L32.6542 34.2165C33.1457 34.3482 33.6511 34.0565 33.7827 33.565C33.9144 33.0734 33.6229 32.5679 33.1311 32.4364Z" fill="white"/>
<path d="M18.5296 27.0439C18.2227 26.9616 17.9145 26.9198 17.6105 26.9141L16.7924 29.9672C16.6607 30.4589 16.9524 30.9641 17.4439 31.0958C17.9356 31.2274 18.4408 30.9358 18.5724 30.4442L19.3906 27.3909C19.1245 27.244 18.8366 27.1261 18.5296 27.0439Z" fill="#1C87F6"/>
<path d="M34.7312 10.9453H7.36328V27.7807H34.7312V10.9453Z" fill="#F95428"/>
<path d="M15.0432 19.1722C16.061 19.1722 16.8861 18.3471 16.8861 17.3293C16.8861 16.3114 16.061 15.4863 15.0432 15.4863C14.0253 15.4863 13.2002 16.3114 13.2002 17.3293C13.2002 18.3471 14.0253 19.1722 15.0432 19.1722Z" fill="#FF8C00"/>
<path d="M15.964 20.5273L15.0424 21.3369L14.1208 20.5273C12.7803 20.8595 11.7193 21.8997 11.3564 23.2281H18.7283C18.3655 21.8997 17.3046 20.8594 15.964 20.5273Z" fill="white"/>
<path d="M26.632 15.0273H22.7223C22.2132 15.0272 21.8008 15.4399 21.8008 15.9488C21.8008 16.4577 22.2134 16.8703 22.7223 16.8703H26.632C27.1409 16.8703 27.5535 16.4577 27.5535 15.9488C27.5533 15.4399 27.1409 15.0271 26.632 15.0273Z" fill="white"/>
<path d="M30.5416 18.4375H22.7223C22.2132 18.4373 21.8008 18.8501 21.8008 19.359C21.8008 19.8679 22.2134 20.2805 22.7223 20.2805H30.5417C31.0506 20.2805 31.4632 19.8679 31.4632 19.359C31.4631 18.85 31.0507 18.4373 30.5416 18.4375Z" fill="white"/>
<path d="M30.5416 21.8457H22.7223C22.2132 21.8455 21.8008 22.2583 21.8008 22.7672C21.8008 23.2761 22.2134 23.6887 22.7223 23.6887H30.5417C31.0506 23.6887 31.4632 23.2761 31.4632 22.7672C31.4632 22.2583 31.0507 21.8455 30.5416 21.8457Z" fill="white"/>
<path d="M15.0426 20.416C14.7248 20.416 14.4162 20.4554 14.1211 20.5285V23.6894C14.1211 24.1983 14.5337 24.6109 15.0426 24.6109C15.5515 24.6109 15.9641 24.1983 15.9641 23.6894V20.5285C15.6689 20.4554 15.3604 20.416 15.0426 20.416Z" fill="#D84D28"/>
<path d="M-0.000427275 7.83097L4.35645 24.0918L30.7903 17.0092L26.4334 0.748378L-0.000427275 7.83097Z" fill="#F7B239"/>
<path d="M9.06952 13.8558C10.0874 13.8558 10.9125 13.0307 10.9125 12.0129C10.9125 10.995 10.0874 10.1699 9.06952 10.1699C8.05168 10.1699 7.22656 10.995 7.22656 12.0129C7.22656 13.0307 8.05168 13.8558 9.06952 13.8558Z" fill="white"/>
<path d="M10.7877 14.862L10.107 15.8826L9.00729 15.339C7.79832 16.0068 7.04277 17.2862 7.03613 18.6632L14.1568 16.7552C13.4625 15.566 12.1684 14.8358 10.7877 14.862Z" fill="white"/>
<path d="M19.6667 6.78757L15.8903 7.79944C15.3985 7.93092 15.1069 8.43646 15.2387 8.92795C15.3704 9.41958 15.8757 9.7113 16.3672 9.5795L20.1437 8.56764C20.6352 8.43592 20.9269 7.93061 20.7952 7.43905C20.6634 6.94757 20.1582 6.65562 19.6667 6.78757Z" fill="white"/>
<path d="M24.326 9.06882L16.7731 11.0926C16.2813 11.2241 15.9897 11.7297 16.1215 12.2211C16.2532 12.7128 16.7585 13.0045 17.25 12.8727L24.803 10.8489C25.2947 10.7172 25.5863 10.2119 25.4546 9.7203C25.3229 9.22882 24.8176 8.93687 24.326 9.06882Z" fill="white"/>
<path d="M25.2088 12.3618L17.6559 14.3856C17.1641 14.5171 16.8725 15.0226 17.0043 15.5141C17.136 16.0058 17.6414 16.2975 18.1328 16.1657L25.6858 14.1419C26.1775 14.0101 26.4691 13.5048 26.3374 13.0133C26.2057 12.5218 25.7005 12.2298 25.2088 12.3618Z" fill="white"/>
<path d="M9.86777 14.9931C9.56082 15.0754 9.27293 15.1933 9.00684 15.3402L9.82496 18.3934C9.95667 18.8851 10.462 19.1768 10.9535 19.045C11.4451 18.9133 11.7368 18.4079 11.605 17.9165L10.7869 14.8633C10.483 14.869 10.1747 14.9108 9.86777 14.9931Z" fill="#D19121"/>
</g>
<defs>
<clipPath id="clip0_174_2856">
<rect width="40" height="40" fill="white"/>
</clipPath>
</defs>
</svg>
