<svg width="32" height="32" viewBox="0 0 32 32" fill="none" xmlns="http://www.w3.org/2000/svg">
<g clip-path="url(#clip0_174_2684)">
<path d="M21.7168 30.5286V28.4561C21.7168 27.6433 21.0579 26.9844 20.2451 26.9844C19.4324 26.9844 18.7734 27.6433 18.7734 28.4561V30.5286C18.7734 31.3413 19.4324 32.0002 20.2451 32.0002C21.0579 32.0002 21.7168 31.3413 21.7168 30.5286Z" fill="#FFB655"/>
<path d="M30.5288 18.7736L28.4562 18.7734C28.4561 18.7734 28.4562 18.7734 28.4561 18.7734C27.6434 18.7734 26.9844 19.4324 26.9844 20.245C26.9844 21.0577 27.6432 21.7168 28.4559 21.7168L30.5286 21.7169C30.5287 21.7169 30.5286 21.7169 30.5287 21.7169C31.3414 21.7169 32.0004 21.058 32.0004 20.2454C32.0004 19.4325 31.3416 18.7737 30.5288 18.7736Z" fill="#FFB655"/>
<path d="M27.5173 28.9872C27.8939 28.9872 28.2706 28.8435 28.558 28.5561C29.1326 27.9815 29.1327 27.0496 28.5581 26.4748L27.0925 25.0092C26.5177 24.4345 25.586 24.4345 25.0111 25.0091C24.4365 25.5838 24.4364 26.5157 25.011 27.0905L26.4766 28.5561C26.764 28.8436 27.1406 28.9872 27.5173 28.9872Z" fill="#FFB655"/>
<path d="M13.2256 1.47169C13.2256 0.658938 12.5667 0 11.7539 0C10.9412 0 10.2822 0.658938 10.2822 1.47169V3.54419C10.2822 4.35694 10.9412 5.01587 11.7539 5.01587C12.5667 5.01587 13.2256 4.35694 13.2256 3.54419V1.47169Z" fill="#EE8700"/>
<path d="M3.54413 13.2267C4.35681 13.2267 5.01581 12.5678 5.01581 11.7551C5.01581 10.9424 4.357 10.2833 3.54425 10.2833L1.47181 10.2832C1.47169 10.2832 1.47181 10.2832 1.47169 10.2832C0.659 10.2833 0 10.9421 0 11.7548C0 12.5677 0.658813 13.2265 1.47156 13.2266L3.54413 13.2267Z" fill="#EE8700"/>
<path d="M3.44373 3.44278C2.8691 4.01741 2.86898 4.94922 3.4436 5.52403L4.90923 6.98966C5.19673 7.27703 5.57335 7.42078 5.94991 7.42078C6.32648 7.42078 6.70323 7.27703 6.9906 6.98978C7.56523 6.41503 7.56535 5.48316 6.99073 4.90841L5.5251 3.44278C4.95016 2.86809 4.01835 2.86797 3.44373 3.44278Z" fill="#EE8700"/>
<path d="M9.75527 29.6026C11.7206 29.6026 13.5687 28.8371 14.9584 27.4473C14.9588 27.447 14.959 27.4466 14.9594 27.4463L19.121 23.2846C19.6958 22.71 19.6958 21.7781 19.121 21.2034C18.5464 20.6286 17.6145 20.6286 17.0398 21.2034L12.878 25.3652C12.8776 25.3655 12.8774 25.3658 12.877 25.3661C12.0432 26.2 10.9345 26.6592 9.75533 26.6592C8.57589 26.6592 7.46733 26.2 6.63339 25.3661C4.91202 23.6446 4.91202 20.8436 6.63339 19.1221L10.7959 14.9596C11.3706 14.385 11.3706 13.4531 10.7959 12.8783C10.2213 12.3036 9.28939 12.3036 8.71464 12.8783L4.55214 17.0408C1.68314 19.9098 1.68314 24.5781 4.55214 27.4473C5.94189 28.8371 7.78977 29.6026 9.75527 29.6026Z" fill="#424EDE"/>
<path d="M27.4454 4.55369C26.0557 3.16394 24.2079 2.39844 22.2424 2.39844C22.2422 2.39844 22.2425 2.39844 22.2422 2.39844C20.2769 2.39844 18.4289 3.16394 17.0391 4.55369C17.039 4.55381 17.039 4.55381 17.039 4.55381C17.039 4.55381 17.039 4.55381 17.0389 4.55394L12.8764 8.71644C12.3016 9.29106 12.3016 10.2229 12.8764 10.7977C13.1637 11.0851 13.5404 11.2288 13.9169 11.2288C14.2936 11.2288 14.6702 11.0851 14.9575 10.7977L19.12 6.63519C19.1201 6.63506 19.1201 6.63506 19.1201 6.63506C19.1201 6.63506 19.1201 6.63506 19.1202 6.63494C19.9541 5.80106 21.0629 5.34181 22.2422 5.34181C23.4215 5.34181 24.5301 5.80106 25.3639 6.63494C27.0854 8.35644 27.0854 11.1574 25.3639 12.8789L21.2014 17.0414C20.6267 17.6162 20.6267 18.5479 21.2014 19.1227C21.4888 19.4101 21.8654 19.5538 22.242 19.5538C22.6186 19.5538 22.9953 19.4101 23.2826 19.1227L27.4451 14.9602C30.3145 12.0911 30.3145 7.42269 27.4454 4.55369Z" fill="#424EDE"/>
<path d="M4.55319 27.4466C5.94306 28.8363 7.79088 29.6017 9.75638 29.6017C11.7218 29.6017 13.5698 28.8362 14.9595 27.4465C14.9599 27.4462 14.9601 27.4458 14.9605 27.4454L19.1221 23.2838C19.6969 22.7092 19.6969 21.7773 19.1221 21.2025C18.5475 20.6278 17.6156 20.6278 17.0409 21.2025L12.8791 25.3644C12.8788 25.3647 12.8785 25.3649 12.8781 25.3652C12.0443 26.1991 10.9356 26.6584 9.75644 26.6584C8.577 26.6584 7.46844 26.1991 6.6345 25.3652C6.62419 25.3549 6.61475 25.3442 6.60469 25.3339L4.52344 27.4151C4.53356 27.4255 4.54287 27.4363 4.55319 27.4466Z" fill="#6E76E5"/>
<path d="M27.415 4.52344L25.3337 6.60469C25.344 6.61481 25.3548 6.62419 25.365 6.6345C27.0865 8.356 27.0865 11.157 25.365 12.8785L21.2025 17.041C20.6278 17.6156 20.6278 18.5475 21.2025 19.1223C21.4899 19.4096 21.8665 19.5534 22.2431 19.5534C22.6197 19.5534 22.9964 19.4096 23.2837 19.1223L27.4462 14.9598C30.3153 12.0908 30.3153 7.42237 27.4462 4.55331C27.4361 4.54294 27.4253 4.53356 27.415 4.52344Z" fill="#6E76E5"/>
</g>
<defs>
<clipPath id="clip0_174_2684">
<rect width="32" height="32" fill="white"/>
</clipPath>
</defs>
</svg>
